<svg width="25" height="48" viewBox="0 0 25 48" fill="none" xmlns="http://www.w3.org/2000/svg">
<path fill-rule="evenodd" clip-rule="evenodd" d="M7.25653 44.2181C8.28717 43.8257 9.72102 43.5379 11.3739 43.4583V46.4744C9.72102 46.3948 8.28717 46.107 7.25653 45.7145C6.64192 45.4805 6.24577 45.2375 6.02909 45.0425C5.99677 45.0134 5.97113 44.988 5.9509 44.9663C5.97113 44.9447 5.99677 44.9193 6.02909 44.8902C6.24577 44.6951 6.64192 44.4522 7.25653 44.2181ZM13.6261 25.335V42.0107C17.3431 42.2506 20.1736 43.4826 20.1736 44.9663C20.1736 46.558 16.9162 47.8599 12.8015 47.9582C12.7042 47.9857 12.6028 48 12.5 48C12.4047 48 12.3106 47.9877 12.2199 47.9641C7.9093 47.9475 4.42838 46.6117 4.42838 44.9663C4.42838 43.4301 7.46286 42.1637 11.3739 41.989V25.335C8.16934 25.0406 5.2 23.5028 3.08382 21.0415C0.967647 18.5802 -0.13236 15.385 0.0127253 12.121C0.157811 8.8569 1.53682 5.77536 3.86275 3.51766C6.18868 1.25996 9.28238 0 12.5 0C15.7176 0 18.8113 1.25996 21.1373 3.51766C23.4632 5.77536 24.8422 8.8569 24.9873 12.121C25.1324 15.385 24.0324 18.5802 21.9162 21.0415C19.8 23.5028 16.8307 25.0406 13.6261 25.335ZM17.3455 45.7145C16.3985 46.0751 15.1111 46.3474 13.6261 46.4509V43.4817C15.1111 43.5853 16.3985 43.8575 17.3455 44.2181C17.9601 44.4522 18.3562 44.6951 18.5729 44.8902C18.6052 44.9193 18.6309 44.9447 18.6511 44.9663C18.6309 44.988 18.6052 45.0134 18.5729 45.0425C18.3562 45.2375 17.9601 45.4805 17.3455 45.7145ZM18.7219 44.8728C18.7221 44.8728 18.7211 44.8755 18.7181 44.8809C18.7201 44.8755 18.7216 44.8728 18.7219 44.8728ZM5.88012 44.8728C5.88037 44.8728 5.88187 44.8755 5.88385 44.8809C5.88242 44.8783 5.88145 44.8763 5.88085 44.875C5.88019 44.8735 5.87998 44.8728 5.88012 44.8728ZM5.88012 45.0599C5.87986 45.0599 5.88086 45.0572 5.88385 45.0518C5.88187 45.0572 5.88037 45.0599 5.88012 45.0599ZM18.7199 45.055C18.7205 45.0562 18.7209 45.0571 18.7213 45.0579C18.7218 45.0592 18.722 45.0599 18.7219 45.0599C18.7218 45.0599 18.7213 45.0592 18.7206 45.0578C18.72 45.0565 18.7191 45.0544 18.7181 45.0518C18.7188 45.053 18.7194 45.0541 18.7199 45.055ZM12.2992 1.71034C11.6237 1.71034 11.0761 2.25794 11.0761 2.93343C11.0761 3.60893 11.6237 4.15653 12.2992 4.15653C17.0277 4.15653 20.8609 7.98973 20.8609 12.7182C20.8609 13.3937 21.4085 13.9413 22.084 13.9413C22.7594 13.9413 23.307 13.3937 23.307 12.7182C23.307 6.63873 18.3787 1.71034 12.2992 1.71034Z" fill="white"/>
</svg>
