<svg width="600" height="115" viewBox="0 0 833 115" fill="none" xmlns="http://www.w3.org/2000/svg">
<path fill-rule="evenodd" clip-rule="evenodd" d="M187.74 106.566C189.836 105.78 192.754 105.204 196.116 105.044V110.956C192.754 110.796 189.836 110.22 187.74 109.434C186.489 108.965 185.685 108.478 185.248 108.091C185.211 108.058 185.178 108.028 185.15 108C185.178 107.972 185.211 107.942 185.248 107.909C185.685 107.522 186.489 107.035 187.74 106.566ZM200.693 68.7097V102.085C208.247 102.565 214 105.03 214 108C214 111.186 207.38 113.791 199.017 113.988C198.819 114.043 198.613 114.072 198.405 114.072C198.211 114.072 198.02 114.047 197.835 114C189.075 113.967 182 111.293 182 108C182 104.925 188.167 102.391 196.116 102.041V68.7097C189.603 68.1206 183.568 65.0427 179.267 60.1167C174.967 55.1906 172.731 48.7958 173.026 42.2631C173.321 35.7303 176.123 29.5629 180.85 25.0444C185.578 20.5258 191.865 18.0041 198.405 18.0041C204.944 18.0041 211.231 20.5258 215.959 25.0444C220.686 29.5629 223.488 35.7303 223.783 42.2631C224.078 48.7958 221.842 55.1906 217.542 60.1167C213.241 65.0427 207.206 68.1206 200.693 68.7097ZM208.26 109.434C206.334 110.156 203.714 110.702 200.693 110.909V105.091C203.714 105.298 206.334 105.844 208.26 106.566C209.511 107.035 210.315 107.522 210.752 107.909C210.789 107.942 210.822 107.972 210.85 108C210.822 108.028 210.789 108.058 210.752 108.091C210.315 108.478 209.511 108.965 208.26 109.434ZM211.042 107.77C211.043 107.77 211.04 107.776 211.034 107.786C211.038 107.776 211.042 107.77 211.042 107.77ZM184.958 107.77C184.958 107.77 184.962 107.776 184.966 107.786C184.96 107.776 184.957 107.77 184.958 107.77ZM184.958 108.23C184.957 108.23 184.96 108.224 184.966 108.214C184.962 108.224 184.958 108.23 184.958 108.23ZM211.034 108.214C211.04 108.224 211.043 108.23 211.042 108.23C211.042 108.23 211.038 108.224 211.034 108.214ZM198.139 21.5C196.759 21.5 195.639 22.6193 195.639 24C195.639 25.3807 196.759 26.5 198.139 26.5C207.804 26.5 215.639 34.335 215.639 44C215.639 45.3807 216.759 46.5 218.139 46.5C219.52 46.5 220.639 45.3807 220.639 44C220.639 31.5736 210.566 21.5 198.139 21.5Z" fill="#4F4F4F"/>
<rect x="769" y="70" width="64" height="26" fill="#414141"/>
<path d="M786.146 78.0127V79.8994C785.225 79.1292 784.272 78.7441 783.288 78.7441C782.203 78.7441 781.29 79.1338 780.547 79.9131C779.799 80.6878 779.426 81.6357 779.426 82.7568C779.426 83.8643 779.799 84.7985 780.547 85.5596C781.294 86.3206 782.21 86.7012 783.295 86.7012C783.855 86.7012 784.332 86.61 784.724 86.4277C784.942 86.3366 785.168 86.2135 785.4 86.0586C785.637 85.9036 785.886 85.7168 786.146 85.498V87.4189C785.234 87.9339 784.277 88.1914 783.274 88.1914C781.766 88.1914 780.479 87.665 779.412 86.6123C778.35 85.5505 777.819 84.2699 777.819 82.7705C777.819 81.4261 778.264 80.2275 779.152 79.1748C780.246 77.8851 781.661 77.2402 783.397 77.2402C784.345 77.2402 785.261 77.4977 786.146 78.0127ZM789.755 77.4453V86.5029H792.858V88H788.162V77.4453H789.755ZM793.405 82.6748C793.405 81.1891 793.95 79.9131 795.039 78.8467C796.124 77.7803 797.427 77.2471 798.949 77.2471C800.453 77.2471 801.743 77.7848 802.818 78.8604C803.898 79.9359 804.438 81.2279 804.438 82.7363C804.438 84.2539 803.896 85.5413 802.812 86.5986C801.722 87.6605 800.408 88.1914 798.867 88.1914C797.505 88.1914 796.281 87.7197 795.196 86.7764C794.002 85.7327 793.405 84.3656 793.405 82.6748ZM795.012 82.6953C795.012 83.862 795.404 84.8213 796.188 85.5732C796.967 86.3252 797.867 86.7012 798.888 86.7012C799.995 86.7012 800.929 86.3184 801.69 85.5527C802.451 84.778 802.832 83.8346 802.832 82.7227C802.832 81.597 802.456 80.6536 801.704 79.8926C800.957 79.127 800.032 78.7441 798.929 78.7441C797.83 78.7441 796.903 79.127 796.146 79.8926C795.39 80.6491 795.012 81.5833 795.012 82.6953ZM806.441 88V76.7275L814.139 84.7803V77.4453H815.731V88.6426L808.034 80.6104V88H806.441ZM824.092 78.9424H819.86V81.4785H823.969V82.9756H819.86V86.5029H824.092V88H818.268V77.4453H824.092V78.9424Z" fill="white"/>
<path d="M29.6377 40.6602H48.9521V42.2041C48.9521 45.7158 48.5384 48.8239 47.7109 51.5283C46.9036 54.0309 45.5413 56.3721 43.624 58.5518C39.2848 63.4359 33.765 65.8779 27.0645 65.8779C20.5254 65.8779 14.9248 63.5166 10.2627 58.7939C5.60059 54.0511 3.26953 48.3597 3.26953 41.7197C3.26953 34.9385 5.64095 29.1865 10.3838 24.4639C15.1266 19.721 20.8988 17.3496 27.7002 17.3496C31.3532 17.3496 34.764 18.0964 37.9326 19.5898C40.96 21.0833 43.9368 23.5052 46.8633 26.8555L41.8379 31.6689C38.0033 26.5628 33.3311 24.0098 27.8213 24.0098C22.8766 24.0098 18.7292 25.7152 15.3789 29.126C12.0286 32.4762 10.3535 36.6742 10.3535 41.7197C10.3535 46.9268 12.2204 51.2155 15.9541 54.5859C19.4456 57.7142 23.2298 59.2783 27.3066 59.2783C30.778 59.2783 33.8962 58.1077 36.6611 55.7666C39.4261 53.4053 40.9701 50.5798 41.293 47.29H29.6377V40.6602ZM133.246 24.8877H114.506V36.1191H132.701V42.749H114.506V58.3701H133.246V65H107.453V18.2578H133.246V24.8877ZM284.879 40.6602H304.194V42.2041C304.194 45.7158 303.78 48.8239 302.952 51.5283C302.145 54.0309 300.783 56.3721 298.865 58.5518C294.526 63.4359 289.006 65.8779 282.306 65.8779C275.767 65.8779 270.166 63.5166 265.504 58.7939C260.842 54.0511 258.511 48.3597 258.511 41.7197C258.511 34.9385 260.882 29.1865 265.625 24.4639C270.368 19.721 276.14 17.3496 282.942 17.3496C286.595 17.3496 290.005 18.0964 293.174 19.5898C296.201 21.0833 299.178 23.5052 302.105 26.8555L297.079 31.6689C293.245 26.5628 288.572 24.0098 283.063 24.0098C278.118 24.0098 273.971 25.7152 270.62 29.126C267.27 32.4762 265.595 36.6742 265.595 41.7197C265.595 46.9268 267.462 51.2155 271.195 54.5859C274.687 57.7142 278.471 59.2783 282.548 59.2783C286.019 59.2783 289.138 58.1077 291.903 55.7666C294.668 53.4053 296.211 50.5798 296.534 47.29H284.879V40.6602ZM369.748 18.2578V46.4121C369.748 50.4284 370.404 53.3649 371.715 55.2217C373.673 57.9059 376.428 59.248 379.98 59.248C383.552 59.248 386.317 57.9059 388.275 55.2217C389.587 53.4255 390.243 50.4889 390.243 46.4121V18.2578H397.296V48.3496C397.296 53.2741 395.763 57.3307 392.695 60.5195C389.244 64.0716 385.005 65.8477 379.98 65.8477C374.955 65.8477 370.726 64.0716 367.296 60.5195C364.228 57.3307 362.694 53.2741 362.694 48.3496V18.2578H369.748ZM483.921 24.8877H465.182V36.1191H483.376V42.749H465.182V58.3701H483.921V65H458.128V18.2578H483.921V24.8877ZM569.213 25.2207L563.492 28.6113C562.422 26.7546 561.403 25.5436 560.434 24.9785C559.425 24.3327 558.123 24.0098 556.529 24.0098C554.571 24.0098 552.946 24.5648 551.655 25.6748C550.363 26.7646 549.717 28.137 549.717 29.792C549.717 32.0726 551.412 33.9092 554.803 35.3018L559.465 37.209C563.259 38.7428 566.035 40.6198 567.79 42.8398C569.546 45.0397 570.424 47.7441 570.424 50.9531C570.424 55.252 568.991 58.804 566.125 61.6094C563.239 64.4349 559.657 65.8477 555.378 65.8477C551.322 65.8477 547.971 64.6468 545.328 62.2451C542.724 59.8434 541.099 56.4629 540.453 52.1035L547.598 50.5293C547.921 53.2741 548.486 55.1712 549.293 56.2207C550.746 58.2389 552.866 59.248 555.651 59.248C557.851 59.248 559.677 58.5114 561.13 57.0381C562.583 55.5648 563.31 53.6979 563.31 51.4375C563.31 50.5293 563.179 49.7018 562.916 48.9551C562.674 48.1882 562.281 47.4919 561.736 46.8662C561.211 46.2204 560.525 45.625 559.677 45.0801C558.829 44.515 557.82 43.9801 556.65 43.4756L552.139 41.5986C545.741 38.8942 542.542 34.9385 542.542 29.7314C542.542 26.2197 543.884 23.2832 546.569 20.9219C549.253 18.5404 552.593 17.3496 556.589 17.3496C561.978 17.3496 566.186 19.9733 569.213 25.2207ZM654.96 25.2207L649.238 28.6113C648.168 26.7546 647.149 25.5436 646.18 24.9785C645.171 24.3327 643.87 24.0098 642.275 24.0098C640.318 24.0098 638.693 24.5648 637.401 25.6748C636.11 26.7646 635.464 28.137 635.464 29.792C635.464 32.0726 637.159 33.9092 640.55 35.3018L645.212 37.209C649.006 38.7428 651.781 40.6198 653.537 42.8398C655.293 45.0397 656.171 47.7441 656.171 50.9531C656.171 55.252 654.738 58.804 651.872 61.6094C648.986 64.4349 645.403 65.8477 641.125 65.8477C637.068 65.8477 633.718 64.6468 631.074 62.2451C628.471 59.8434 626.846 56.4629 626.2 52.1035L633.345 50.5293C633.667 53.2741 634.233 55.1712 635.04 56.2207C636.493 58.2389 638.612 59.248 641.397 59.248C643.597 59.248 645.424 58.5114 646.877 57.0381C648.33 55.5648 649.056 53.6979 649.056 51.4375C649.056 50.5293 648.925 49.7018 648.663 48.9551C648.421 48.1882 648.027 47.4919 647.482 46.8662C646.957 46.2204 646.271 45.625 645.424 45.0801C644.576 44.515 643.567 43.9801 642.396 43.4756L637.886 41.5986C631.488 38.8942 628.289 34.9385 628.289 29.7314C628.289 26.2197 629.631 23.2832 632.315 20.9219C634.999 18.5404 638.34 17.3496 642.336 17.3496C647.724 17.3496 651.932 19.9733 654.96 25.2207ZM740.07 24.8877H721.331V36.1191H739.526V42.749H721.331V58.3701H740.07V65H714.278V18.2578H740.07V24.8877ZM814.767 45.0801L829.238 65H820.61L807.259 45.8672H805.988V65H798.934V18.2578H807.199C813.375 18.2578 817.835 19.4183 820.58 21.7393C823.607 24.3226 825.121 27.7334 825.121 31.9717C825.121 35.2816 824.172 38.1273 822.275 40.5088C820.378 42.8903 817.875 44.4141 814.767 45.0801ZM805.988 39.7217H808.228C814.908 39.7217 818.249 37.1686 818.249 32.0625C818.249 27.2793 814.999 24.8877 808.501 24.8877H805.988V39.7217Z" fill="#4F4F4F"/>
</svg>
