<svg width="32px" height="32px" viewBox="0 0 32 32" fill="none" xmlns="http://www.w3.org/2000/svg">
<path d="M7.5 9C6.673 9 6 8.327 6 7.5C6 6.673 6.673 6 7.5 6C8.327 6 9 6.673 9 7.5C9 8.327 8.327 9 7.5 9ZM7.5 7C7.224 7 7 7.224 7 7.5C7 7.776 7.224 8 7.5 8C7.776 8 8 7.776 8 7.5C8 7.224 7.776 7 7.5 7Z" fill="#F2F2F2"/>
<path d="M7.5 14C7.336 14 7.182 13.919 7.088 13.784C6.772 13.327 4 9.262 4 7.5C4 5.57 5.57 4 7.5 4C9.43 4 11 5.57 11 7.5C11 9.262 8.228 13.327 7.912 13.784C7.818 13.919 7.664 14 7.5 14Z" fill="#F2F2F2"/>
<path d="M23.5 21C22.122 21 21 19.878 21 18.5C21 17.122 22.122 16 23.5 16C24.878 16 26 17.122 26 18.5C26 19.878 24.878 21 23.5 21ZM23.5 17C22.673 17 22 17.673 22 18.5C22 19.327 22.673 20 23.5 20C24.327 20 25 19.327 25 18.5C25 17.673 24.327 17 23.5 17Z" fill="#F2F2F2"/>
<path d="M23.069 27.754C23.159 27.906 23.323 28 23.5 28C23.677 28 23.841 27.906 23.931 27.754C24.347 27.047 28 20.779 28 18.5C28 16.019 25.981 14 23.5 14C21.019 14 19 16.019 19 18.5C19 20.779 22.653 27.047 23.069 27.754Z" fill="#F2F2F2"/>
<path d="M21.5 28C20.738 28 20.039 27.937 19.422 27.812C19.151 27.757 18.977 27.493 19.031 27.222C19.086 26.951 19.345 26.779 19.621 26.831C20.173 26.943 20.805 27 21.5 27C21.776 27 22 27.224 22 27.5C22 27.776 21.776 28 21.5 28ZM17.679 27.114C17.587 27.114 17.494 27.089 17.41 27.035C16.774 26.629 16.279 26.104 15.897 25.432C15.76 25.192 15.845 24.887 16.085 24.75C16.325 24.613 16.63 24.698 16.767 24.938C17.067 25.466 17.453 25.876 17.949 26.192C18.182 26.34 18.25 26.65 18.101 26.882C18.006 27.032 17.844 27.114 17.679 27.114ZM15.671 23.809C15.438 23.809 15.23 23.645 15.182 23.409C15.036 22.693 14.965 21.939 14.919 21.363C14.897 21.088 15.103 20.847 15.378 20.825C15.652 20.801 15.894 21.009 15.916 21.284C15.959 21.832 16.027 22.546 16.162 23.21C16.217 23.481 16.042 23.745 15.772 23.799C15.738 23.806 15.705 23.809 15.671 23.809ZM15.274 19.824C15.017 19.824 14.798 19.627 14.776 19.366C14.708 18.563 14.626 17.973 14.507 17.453C14.445 17.184 14.614 16.916 14.883 16.854C15.149 16.791 15.42 16.961 15.482 17.231C15.611 17.798 15.7 18.431 15.772 19.281C15.795 19.556 15.591 19.798 15.316 19.821C15.302 19.823 15.288 19.824 15.274 19.824ZM14.266 15.998C14.102 15.998 13.941 15.917 13.846 15.769C13.526 15.274 13.114 14.897 12.586 14.616C12.342 14.486 12.25 14.183 12.379 13.94C12.509 13.697 12.812 13.605 13.055 13.733C13.727 14.091 14.276 14.593 14.685 15.226C14.835 15.457 14.768 15.767 14.537 15.917C14.453 15.972 14.359 15.998 14.266 15.998ZM10.933 14.094C10.91 14.094 10.886 14.093 10.861 14.089C10.446 14.03 9.975 14.013 9.5 14C9.224 14 9 13.776 9 13.5C9 13.22 9.236 12.978 9.511 13C10.042 13 10.544 13.033 11.003 13.099C11.276 13.139 11.466 13.392 11.427 13.665C11.391 13.915 11.177 14.094 10.933 14.094Z" fill="#F2F2F2"/>
</svg>
