<svg width="32px" height="32px" viewBox="0 0 32 32" fill="none" xmlns="http://www.w3.org/2000/svg">
<path d="M8 10C7.4501 10 7 10.4502 7 11V22H11V11C11 10.4502 10.55 10 10 10H8Z" fill="#F2F2F2"/>
<path d="M27 24.0201H5C4.4501 24.0201 4 24.46 4 25.0201C4 25.5699 4.4501 26.0098 5 26.0098H27C27.55 26.0098 28 25.5699 28 25.0098C28 24.46 27.55 24.0201 27 24.0201Z" fill="#F2F2F2"/>
<path d="M22 14C21.4501 14 21 14.4502 21 15V22H25V15C25 14.4502 24.55 14 24 14H22Z" fill="#F2F2F2"/>
<path d="M17 6H15C14.4501 6 14 6.4502 14 7V22H18V7C18 6.4502 17.55 6 17 6Z" fill="#F2F2F2"/>
</svg>
